<svg xmlns="http://www.w3.org/2000/svg" viewBox="0 0 389 440"><defs><style>.cls-1{fill:#222629;}.cls-2,.cls-3{fill:none;}.cls-2{stroke:#fff;stroke-linecap:round;stroke-linejoin:round;stroke-width:0.75px;}.cls-3{stroke:#95cd7b;stroke-miterlimit:10;}</style></defs><g id="Layer_29" data-name="Layer 29"><rect class="cls-1" x="-246.64" y="-232.2" width="1285.28" height="859.4"/></g><g id="plow"><path class="cls-2" d="M184.5,212.61c3.37,2.65,1.54,6.74.38,8.3"/><path class="cls-2" d="M142.84,185.58c3.18,2.49,1.35,6.58.19,8.15"/><path class="cls-2" d="M137.27,199.44h.26a6.12,6.12,0,0,0,1-.09,8,8,0,0,0,1-.25,9.16,9.16,0,0,0,1-.4,9.06,9.06,0,0,0,1-.54,10.12,10.12,0,0,0,.92-.65c.29-.23.57-.48.84-.74a12.6,12.6,0,0,0,1.44-1.66c.2-.29.4-.58.58-.89s.37-.64.54-1,.32-.69.46-1.05.25-.73.35-1.11a10.8,10.8,0,0,0,.24-1.13,11,11,0,0,0,.1-1.13,8,8,0,0,0-.07-1.29,6.19,6.19,0,0,0-.56-1.92c0-.09-.09-.17-.13-.25"/><line class="cls-2" x1="159.2" y1="223.56" x2="146.23" y2="214.76"/><path class="cls-2" d="M224.08,277.85a5.69,5.69,0,0,0-4.54,6.37"/><path class="cls-2" d="M240.61,287.23c-2.34.21-4.5,4-3.49,6.53"/><path class="cls-2" d="M262.75,266.49a5,5,0,0,0-3.89,5.94"/><path class="cls-2" d="M282.61,248c-2.45,0-5,4-3,6.26"/><path class="cls-2" d="M274,229.15c-2.33.11-5,4-3.83,6.22"/><path class="cls-2" d="M302.46,229.47c-2.24-.57-5,4-3.45,5.73"/><path class="cls-2" d="M178.42,227H179a7.14,7.14,0,0,0,1.12-.14,8.16,8.16,0,0,0,1.14-.33,8,8,0,0,0,.75-.32,9,9,0,0,0,1.09-.62,10.83,10.83,0,0,0,1-.75,11,11,0,0,0,.93-.87,13.34,13.34,0,0,0,1.53-1.91c.22-.35.43-.72.63-1.09a12.57,12.57,0,0,0,.54-1.18,11.57,11.57,0,0,0,.41-1.26,11.7,11.7,0,0,0,.27-1.31,9.47,9.47,0,0,0,.09-1.3,8.06,8.06,0,0,0,0-.85,7,7,0,0,0-.21-1.2,5.86,5.86,0,0,0-.38-1.09c-.08-.18-.17-.35-.26-.51"/></g><g id="Layer_02" data-name="Layer 02"><line class="cls-3" x1="190.21" y1="321.36" x2="65" y2="226.55"/><line class="cls-3" x1="138.09" y1="274.88" x2="135.58" y2="276.9"/><line class="cls-3" x1="138.09" y1="274.88" x2="136.91" y2="269.81"/><line class="cls-3" x1="138.21" y1="251.2" x2="155.95" y2="264.04"/><line class="cls-3" x1="153.22" y1="273.92" x2="151.7" y2="272.8"/><line class="cls-3" x1="155.95" y1="264.04" x2="156.07" y2="264.68"/><path class="cls-3" d="M68.7,229.35c5.56,5.09,7.49,11.76,7.36,19"/><path class="cls-3" d="M197.46,340.87a65.07,65.07,0,0,1-2,8.27"/><path class="cls-3" d="M76.06,248.31a46.4,46.4,0,0,1-.92,8.23"/><line class="cls-3" x1="75.14" y1="256.54" x2="194.53" y2="350.04"/><line class="cls-3" x1="196.61" y1="341.46" x2="197.46" y2="340.87"/><line class="cls-3" x1="194.53" y1="350.04" x2="195.47" y2="349.14"/><path class="cls-3" d="M196.61,341.46a64.61,64.61,0,0,1-2.08,8.58"/><line class="cls-3" x1="76.06" y1="248.31" x2="196.61" y2="341.46"/><path class="cls-3" d="M190.21,321.36a13.61,13.61,0,0,1,1.51,1"/><path class="cls-3" d="M191.73,319.23a13.86,13.86,0,0,1,1.44,1"/><path class="cls-3" d="M68.26,226c-.6-.45-1.22-.88-1.86-1.28"/><path class="cls-3" d="M193.17,320.19c6.27,4.73,6.25,13.06,5.21,19.6"/><path class="cls-3" d="M69.92,227.4c-.53-.48-1.09-.93-1.66-1.37"/><path class="cls-3" d="M75.19,234.27c0-.07-.07-.14-.11-.22"/><line class="cls-3" x1="190.21" y1="321.36" x2="191.73" y2="319.23"/><line class="cls-3" x1="197.34" y1="340.78" x2="197.46" y2="340.87"/><path class="cls-3" d="M191.72,322.36c6.08,4.6,5.94,12.79,4.89,19.1"/><line class="cls-3" x1="138.17" y1="262.2" x2="137.01" y2="257.11"/><line class="cls-3" x1="136.91" y1="269.81" x2="136.83" y2="269.75"/><line class="cls-3" x1="143.66" y1="266.87" x2="138.05" y2="262.75"/><line class="cls-3" x1="153.69" y1="273.54" x2="153.22" y2="273.92"/><line class="cls-3" x1="155.95" y1="264.04" x2="151.87" y2="267.33"/><line class="cls-3" x1="151.37" y1="267.62" x2="152.42" y2="272.69"/><line class="cls-3" x1="134.13" y1="254.37" x2="134.68" y2="256.76"/><line class="cls-3" x1="151.87" y1="267.33" x2="134.13" y2="254.37"/><line class="cls-3" x1="135.97" y1="256.35" x2="133.6" y2="267.34"/><line class="cls-3" x1="135.78" y1="268.97" x2="150.3" y2="266.83"/><line class="cls-3" x1="196.61" y1="341.46" x2="198.38" y2="339.79"/><line class="cls-3" x1="66.4" y1="224.75" x2="191.73" y2="319.23"/><line class="cls-3" x1="68.26" y1="226.03" x2="193.18" y2="320.18"/><line class="cls-3" x1="134.72" y1="268.18" x2="132.55" y2="266.56"/><line class="cls-3" x1="136.91" y1="269.81" x2="131.69" y2="273.96"/><line class="cls-3" x1="132.55" y1="266.56" x2="127.33" y2="270.68"/><line class="cls-3" x1="137.01" y1="257.11" x2="134.93" y2="255.59"/><path class="cls-3" d="M134.93,255.59q-1.19,5.49-2.38,11"/><path class="cls-3" d="M137,257.11l-2.36,11"/><path class="cls-3" d="M138.17,262.2c-.4,1.89-.79,3.77-1.19,5.65"/><line class="cls-3" x1="151.87" y1="267.33" x2="153.22" y2="273.92"/><line class="cls-3" x1="134.13" y1="254.37" x2="138.21" y2="251.2"/><path class="cls-3" d="M152.42,272.69l-14.34,2.13"/><line class="cls-3" x1="136.83" y1="269.75" x2="134.72" y2="268.18"/><line class="cls-3" x1="149.24" y1="266.05" x2="151.37" y2="267.62"/><path class="cls-3" d="M151.37,267.62l-14.54,2.13"/><path class="cls-3" d="M149.24,266.05l-14.52,2.13"/></g><g id="exterior_pockets" data-name="exterior pockets"><path class="cls-2" d="M301.38,161.49c-6.44-6.24-27-15.06-33.41-18.46"/></g><g id="where::Visible::Curves::headlights"><path class="cls-2" d="M184.88,220.91a8,8,0,0,1-3.3,3,4.57,4.57,0,0,1-4.31.08"/><path class="cls-2" d="M176.79,215.6a8,8,0,0,1,3.35-3,4.51,4.51,0,0,1,4.36,0"/><path class="cls-2" d="M177.27,224a4.4,4.4,0,0,1-1.92-4,7.84,7.84,0,0,1,1.44-4.37"/><path class="cls-2" d="M135.94,188.72a8,8,0,0,1,3-2.77c.94-.51,2.85-1.11,3.93-.37"/><path class="cls-2" d="M135.42,196c-1.6-2.42-.94-5,.52-7.23"/><line class="cls-2" x1="120.38" y1="220.82" x2="120.41" y2="220.82"/><line class="cls-2" x1="233.48" y1="301.29" x2="234.51" y2="301.11"/><line class="cls-2" x1="234.51" y1="301.11" x2="235.63" y2="300.67"/><line class="cls-2" x1="235.63" y1="300.67" x2="236.84" y2="299.99"/><line class="cls-2" x1="236.84" y1="299.99" x2="238.09" y2="299.09"/><line class="cls-2" x1="239.36" y1="298" x2="300.77" y2="240.2"/><line class="cls-2" x1="300.77" y1="240.2" x2="301.95" y2="238.97"/><line class="cls-2" x1="301.95" y1="238.97" x2="303.12" y2="237.56"/><line class="cls-2" x1="303.12" y1="237.56" x2="304.23" y2="236.01"/><line class="cls-2" x1="304.23" y1="236.01" x2="305.25" y2="234.36"/><line class="cls-2" x1="305.25" y1="234.36" x2="306.15" y2="232.65"/><line class="cls-2" x1="306.15" y1="232.65" x2="321.84" y2="200.29"/><line class="cls-2" x1="321.84" y1="200.29" x2="322.91" y2="197.88"/><line class="cls-2" x1="322.91" y1="197.88" x2="323.78" y2="195.5"/><line class="cls-2" x1="323.78" y1="195.5" x2="324.43" y2="193.21"/><line class="cls-2" x1="324.43" y1="193.21" x2="324.82" y2="191.08"/><line class="cls-2" x1="324.82" y1="191.08" x2="324.97" y2="189.15"/><line class="cls-2" x1="324.97" y1="189.15" x2="324.85" y2="187.48"/><line class="cls-2" x1="324.85" y1="187.48" x2="324.46" y2="186.11"/><line class="cls-2" x1="324.46" y1="186.11" x2="323.83" y2="185.08"/><line class="cls-2" x1="323.83" y1="185.08" x2="322.95" y2="184.42"/><line class="cls-2" x1="320.55" y1="184.29" x2="319.1" y2="184.83"/><line class="cls-2" x1="215.67" y1="277.07" x2="214.04" y2="279.65"/><line class="cls-2" x1="214.04" y1="279.65" x2="212.66" y2="282.29"/><line class="cls-2" x1="212.66" y1="282.29" x2="211.56" y2="284.9"/><line class="cls-2" x1="210.79" y1="287.39" x2="210.36" y2="289.7"/><line class="cls-2" x1="212.1" y1="295.85" x2="213.31" y2="296.4"/><line class="cls-2" x1="213.31" y1="296.4" x2="232.58" y2="301.21"/><line class="cls-2" x1="232.58" y1="301.21" x2="233.48" y2="301.29"/><path class="cls-2" d="M143,193.73a7.85,7.85,0,0,1-3.41,3,3.37,3.37,0,0,1-4.2-.82"/><line class="cls-2" x1="112.17" y1="218.22" x2="114.25" y2="219.01"/><line class="cls-2" x1="238.09" y1="299.09" x2="239.36" y2="298"/></g><g id="where::Visible::Curves::camera"><line class="cls-2" x1="152.05" y1="214.41" x2="156.29" y2="217.27"/><line class="cls-2" x1="155.9" y1="215.15" x2="151.65" y2="212.29"/><path class="cls-2" d="M157.07,217.39l0,0"/><line class="cls-2" x1="157.11" y1="217.36" x2="157.03" y2="217.42"/><path class="cls-2" d="M156.29,217.27c.37.25.88.4.87-.19"/><line class="cls-2" x1="147.84" y1="211.57" x2="152.05" y2="214.41"/><path class="cls-2" d="M146.61,209.83a3.21,3.21,0,0,0,1.23,1.74"/><path class="cls-2" d="M147.43,209.46c-.48-.33-1-.29-.82.37"/><line class="cls-2" x1="146.61" y1="210.3" x2="146.62" y2="210.29"/><line class="cls-2" x1="162.09" y1="212.99" x2="160.36" y2="214.3"/><line class="cls-2" x1="151.65" y1="212.29" x2="147.43" y2="209.46"/><line class="cls-2" x1="146.72" y1="209.31" x2="146.79" y2="209.25"/><path class="cls-2" d="M146.79,209.25l0,0"/><line class="cls-2" x1="157.85" y1="215.67" x2="145.54" y2="207.42"/><line class="cls-2" x1="173.71" y1="200.4" x2="159.76" y2="210.84"/><line class="cls-2" x1="145.54" y1="207.42" x2="145" y2="204.65"/><line class="cls-2" x1="145.51" y1="211.1" x2="146.23" y2="214.76"/><line class="cls-2" x1="158.55" y1="219.91" x2="159.2" y2="223.56"/><line class="cls-2" x1="157.85" y1="215.67" x2="157.34" y2="212.84"/><path class="cls-2" d="M157.15,216.94v0"/><line class="cls-2" x1="147.71" y1="209.49" x2="147.72" y2="209.48"/><line class="cls-2" x1="146.59" y1="202.08" x2="160.56" y2="191.93"/><path class="cls-2" d="M157.15,216.92a2.2,2.2,0,0,0-.2-.56"/></g><g id="where::Visible::Curves::camera_holder" data-name="where::Visible::Curves::camera holder"><line class="cls-2" x1="161.82" y1="213.4" x2="162.4" y2="216.8"/><line class="cls-2" x1="159.61" y1="211.15" x2="157.3" y2="212.87"/><line class="cls-2" x1="157.27" y1="212.7" x2="144.1" y2="203.89"/><line class="cls-2" x1="159.58" y1="210.97" x2="157.27" y2="212.7"/><line class="cls-2" x1="161.82" y1="213.4" x2="157.92" y2="216.33"/><line class="cls-2" x1="159.61" y1="211.15" x2="160.18" y2="214.43"/><line class="cls-2" x1="157.92" y1="216.33" x2="144.81" y2="207.53"/><line class="cls-2" x1="160.18" y1="214.43" x2="157.89" y2="216.16"/><line class="cls-2" x1="160.36" y1="214.3" x2="160.36" y2="214.3"/><line class="cls-2" x1="159.76" y1="210.84" x2="160.36" y2="214.3"/><line class="cls-2" x1="162.09" y1="212.99" x2="162.73" y2="216.74"/><line class="cls-2" x1="162.43" y1="216.97" x2="162.73" y2="216.74"/><line class="cls-2" x1="157.89" y1="216.16" x2="144.78" y2="207.35"/><line class="cls-2" x1="159.01" y1="211.6" x2="159.5" y2="214.43"/><line class="cls-2" x1="144.1" y1="203.89" x2="146.41" y2="202.21"/><line class="cls-2" x1="144.13" y1="204.06" x2="144.1" y2="203.89"/><line class="cls-2" x1="157.27" y1="212.7" x2="157.3" y2="212.87"/><line class="cls-2" x1="157.85" y1="215.67" x2="159.5" y2="214.43"/><line class="cls-2" x1="144.78" y1="207.35" x2="145.44" y2="206.87"/><line class="cls-2" x1="144.81" y1="207.53" x2="144.78" y2="207.35"/><line class="cls-2" x1="157.89" y1="216.16" x2="157.92" y2="216.33"/><line class="cls-2" x1="145.51" y1="211.1" x2="145.48" y2="210.93"/><line class="cls-2" x1="145.51" y1="211.1" x2="158.55" y2="219.91"/><line class="cls-2" x1="146.54" y1="210.15" x2="145.48" y2="210.93"/><line class="cls-2" x1="147.58" y1="209.39" x2="147.57" y2="209.39"/><line class="cls-2" x1="158.52" y1="219.73" x2="162.4" y2="216.8"/><line class="cls-2" x1="158.52" y1="219.73" x2="145.48" y2="210.93"/><line class="cls-2" x1="146.59" y1="202.08" x2="159.76" y2="210.84"/><line class="cls-2" x1="158.55" y1="219.91" x2="158.52" y2="219.73"/><line class="cls-2" x1="159.76" y1="210.84" x2="159.58" y2="210.97"/><line class="cls-2" x1="146.41" y1="202.21" x2="146.59" y2="202.08"/><line class="cls-2" x1="162.4" y1="216.8" x2="160.66" y2="215.63"/><line class="cls-2" x1="158.55" y1="219.91" x2="162.43" y2="216.97"/><line class="cls-2" x1="157.3" y1="212.87" x2="144.13" y2="204.06"/></g><g id="where::Visible::Curves::metal_frame" data-name="where::Visible::Curves::metal frame"><line class="cls-2" x1="130.31" y1="228.6" x2="118.44" y2="237.42"/><polyline class="cls-2" points="181.21 282.8 181.25 282.77 186.33 278.42"/><polyline class="cls-2" points="110.8 231.88 110.8 231.85 110.81 231.8 110.83 231.77"/><polyline class="cls-2" points="182.38 294.29 181.54 289.04 181.54 289.01 181.54 288.99 181.55 288.97 181.56 288.94 181.57 288.92 181.59 288.89 181.6 288.87 181.62 288.84 181.64 288.82 181.66 288.8 186.49 284.71"/><polyline class="cls-2" points="134.16 259.17 108.17 240.05 108.12 240 108.08 239.95 108.05 239.88 106.72 234.97 106.71 234.89 106.71 234.8 106.72 234.71 106.75 234.62 106.79 234.52 106.84 234.42 106.91 234.33 106.98 234.24 107.06 234.17 107.14 234.1 110.14 231.91 110.23 231.85 110.32 231.81 110.4 231.78 110.49 231.76 110.56 231.76 110.64 231.78 110.7 231.81 137.84 251.48"/><polyline class="cls-2" points="155.58 264.33 185.11 285.72 185.15 285.76 185.18 285.81 185.2 285.88 185.92 290.71 185.93 290.78 185.92 290.87 185.89 290.96 185.86 291.06 185.81 291.17 185.76 291.27 185.69 291.37 185.62 291.46 185.54 291.55 185.46 291.63 182.51 294.19 182.43 294.26 182.34 294.32 182.26 294.36 182.18 294.38 182.11 294.39 182.05 294.38 181.99 294.36 153.05 273.07"/><polyline class="cls-2" points="181.19 282.88 181.19 282.85 181.21 282.8"/><polyline class="cls-2" points="113.82 234.07 113.81 234.06 113.79 234.04 113.77 234.03 111.24 232.19 111.22 232.18 111.2 232.17 111.19 232.17 111.18 232.17 111.17 232.17"/><polyline class="cls-2" points="184.7 285.42 184.69 285.41 184.66 285.39 184.64 285.37 181.7 283.24 181.68 283.23 181.66 283.22 181.65 283.21"/></g><g id="where::Visible::Curves::wheels"><line class="cls-2" x1="134.28" y1="231.41" x2="133.93" y2="231.34"/><polyline class="cls-2" points="303.42 232.8 303.51 232.57 303.59 232.35 303.66 232.13 303.71 231.92 303.75 231.72"/><polyline class="cls-2" points="241.91 288.97 241.9 288.8 241.88 288.68 241.84 288.51"/><polyline class="cls-2" points="112.69 203.2 112.71 203.2 112.98 203.16 113.24 203.19 113.47 203.26"/><polyline class="cls-2" points="110.73 206.55 110.7 206.51 110.61 206.27 110.59 206.08"/><polyline class="cls-2" points="238.17 293.99 238.01 294 237.89 294 237.74 293.99 237.61 293.97 237.47 293.93 237.35 293.89"/><polyline class="cls-2" points="215.22 121.92 214.89 121.75 214.85 121.73 214.78 121.71 214.74 121.7"/><polyline class="cls-2" points="208.3 121.77 207.93 121.57 207.89 121.55 207.81 121.53 207.78 121.52 207.69 121.51 207.66 121.51"/><polyline class="cls-2" points="303.79 231.44 303.8 231.26 303.79 231.09 303.79 230.98 303.76 230.83"/><line class="cls-2" x1="116.87" y1="191.44" x2="116.87" y2="191.44"/><polyline class="cls-2" points="111.34 210.86 111.01 211.15 110.16 211.81 110.15 211.83"/><polyline class="cls-2" points="302.51 234.36 302.36 234.55 302.2 234.74 302.04 234.91 301.88 235.06 301.72 235.2"/><polyline class="cls-2" points="301.49 235.38 301.33 235.49 301.18 235.57"/><line class="cls-2" x1="114.29" y1="193.79" x2="114.3" y2="193.79"/><polyline class="cls-2" points="207.06 121.94 207.11 121.87 207.18 121.78 207.25 121.71"/><line class="cls-2" x1="312.25" y1="184.38" x2="312.25" y2="184.38"/><polyline class="cls-2" points="116.65 222.67 117.54 222.33 118.43 221.93 119.32 221.47 120.21 220.94"/><polyline class="cls-2" points="110.83 219.82 111.62 219.75 112.7 219.53 113.81 219.19 114.93 218.73 115.04 218.67 115.15 218.59 115.26 218.49 115.36 218.38 115.44 218.26 115.51 218.14 115.57 218.01 115.61 217.89 115.63 217.76 115.63 217.65 115.35 214.46"/><polyline class="cls-2" points="110.3 221.4 110.23 221.34 110.17 221.27 110.14 221.17 110.12 221.06 110.12 220.95 110.14 220.82 110.19 220.69 110.25 220.56 110.32 220.43 110.41 220.31 115.22 214.6 115.32 214.5 115.42 214.4 115.53 214.33 115.64 214.27 115.75 214.23 115.86 214.21 115.96 214.21 116.05 214.22 116.28 214.27"/><polyline class="cls-2" points="120.4 220.81 120.23 220.92 120.21 220.94"/><polyline class="cls-2" points="107.3 215.98 111.05 211.54 111.14 211.43 111.21 211.31 111.27 211.18 111.31 211.05 111.34 210.93 111.34 210.81 111.33 210.7 111.3 210.61 111.23 210.38"/><polyline class="cls-2" points="108.39 210.5 108.4 210.49 108.52 210.44 108.64 210.4 108.75 210.39 114.05 210.36 114.13 210.36 114.23 210.37 114.32 210.4"/><polyline class="cls-2" points="114.39 210.45 114.32 210.4 114.31 210.4"/><polyline class="cls-2" points="110.28 206.55 111.18 206.55 111.29 206.54 111.4 206.51 111.51 206.46 111.63 206.39 111.74 206.31 111.84 206.21 111.93 206.09 112.01 205.97 112.53 205.19 113.12 204.48 113.78 203.84 113.88 203.74 113.97 203.63 114.06 203.52 114.12 203.4 114.17 203.27 114.21 203.15 114.22 203.03 114.22 202.91 114.12 201.67"/><line class="cls-2" x1="303.19" y1="229.91" x2="303.29" y2="229.98"/><polyline class="cls-2" points="300.94 235.69 300.79 235.73 300.68 235.76 300.54 235.79"/><polyline class="cls-2" points="300.29 235.8 300.18 235.78 300.06 235.76 299.94 235.73 299.83 235.68 299.72 235.63"/><polyline class="cls-2" points="299.72 235.63 299.67 235.6 299.01 235.2"/><polyline class="cls-2" points="302.46 229.47 303.12 229.86 303.19 229.91"/><polyline class="cls-2" points="303.42 232.8 303.4 232.84 303.31 233.06 303.2 233.28 303.08 233.5 302.95 233.72 302.82 233.93 302.68 234.13 302.53 234.33 302.51 234.36"/><line class="cls-2" x1="128.4" y1="227.26" x2="128.4" y2="227.25"/><line class="cls-2" x1="117.86" y1="190.77" x2="117.85" y2="190.76"/><polygon class="cls-2" points="238.82 293.79 238.92 293.75 238.74 293.83 238.63 293.87 238.82 293.79"/><polygon class="cls-2" points="241.6 288.01 241.52 287.92 241.42 287.81 241.51 287.91 241.6 288.01"/><polyline class="cls-2" points="303.7 230.58 303.73 230.69 303.76 230.83"/><line class="cls-2" x1="137.27" y1="199.44" x2="135.28" y2="198.29"/><line class="cls-2" x1="144.18" y1="184.14" x2="146.13" y2="185.36"/><line class="cls-2" x1="178.42" y1="226.95" x2="176.36" y2="225.76"/><line class="cls-2" x1="185.5" y1="210.89" x2="187.61" y2="212.23"/><polyline class="cls-2" points="303.46 230.15 303.53 230.25 303.6 230.35"/><polygon class="cls-2" points="283.92 249.35 283.89 249.2 283.91 249.31 283.94 249.46 283.92 249.35"/><polyline class="cls-2" points="273.38 235.26 273.2 235.41 273.02 235.54 272.95 235.6 273.13 235.47 273.17 235.43"/><polygon class="cls-2" points="263.96 267.59 263.9 267.45 263.95 267.57 264.01 267.7 263.96 267.59"/><polygon class="cls-2" points="260.36 273.12 260.49 273.12 260.34 273.12 260.22 273.12 260.36 273.12"/><polygon class="cls-2" points="263.84 267.35 263.76 267.23 263.83 267.34 263.9 267.45 263.84 267.35"/><polygon class="cls-2" points="260.1 273.1 260.22 273.12 260.08 273.1 259.96 273.08 260.1 273.1"/><polyline class="cls-2" points="118.84 214.33 118.78 214.36 118.36 214.49 117.95 214.57 117.55 214.6 117.17 214.58 116.81 214.51 116.48 214.39 116.19 214.22 115.61 213.82 115.35 213.6 115.12 213.34 114.93 213.04 114.78 212.69 114.68 212.32 114.62 211.91 114.61 211.48 114.61 211.42 114.64 211.02 114.72 210.55 114.84 210.07 115 209.58 115.21 209.09 115.46 208.6 115.74 208.13 116.05 207.67 116.4 207.24 116.77 206.83 116.97 206.63"/><polyline class="cls-2" points="115.92 210.37 115.89 210.34 115.86 210.3 115.84 210.25 115.83 210.19 115.83 210.12 115.84 210.05 115.86 209.98 115.9 209.91 115.94 209.84 115.99 209.77 116.04 209.71 116.1 209.66 116.17 209.61 116.23 209.58 116.3 209.56 116.36 209.55 116.41 209.55 116.47 209.57 116.51 209.59"/><polyline class="cls-2" points="133.93 231.34 133.44 231.2 133.38 231.18"/><polyline class="cls-2" points="301.72 235.2 301.56 235.32 301.49 235.38"/><polyline class="cls-2" points="132.93 230.98 132.5 230.73 132.45 230.7"/><polyline class="cls-2" points="132.45 230.7 132.35 230.63 129.9 228.9"/><line class="cls-2" x1="133.38" y1="231.18" x2="132.93" y2="230.98"/><polyline class="cls-2" points="275.45 231.53 275.47 231.31 275.47 231.11 275.47 231 275.45 230.81 275.42 230.64 275.39 230.52 275.34 230.37 275.29 230.25 275.23 230.11 275.15 230.01 275.07 229.89 274.98 229.8 274.87 229.7 274.77 229.63"/><polyline class="cls-2" points="270.94 235.85 271.06 235.91 271.19 235.97 271.31 236 271.46 236.03 271.58 236.04 271.74 236.04 271.86 236.04 272.03 236.01 272.14 235.98 272.31 235.93 272.49 235.86 272.59 235.81 272.76 235.72 272.95 235.6"/><polygon class="cls-2" points="279.85 254.35 279.74 254.29 279.63 254.23 279.74 254.29 279.85 254.35"/><polyline class="cls-2" points="280.61 254.43 280.46 254.44 280.34 254.45 280.21 254.44 280.09 254.42"/><polyline class="cls-2" points="283.89 249.2 283.84 249.06 283.79 248.95 283.73 248.83 283.66 248.73 283.58 248.63 283.49 248.54"/><polyline class="cls-2" points="117.86 213.24 117.7 213.12 117.12 212.72"/><polyline class="cls-2" points="118.43 213.49 118.24 213.42 118.14 213.38"/><polyline class="cls-2" points="118.14 213.38 117.96 213.29 117.86 213.24"/><polyline class="cls-2" points="301.18 235.57 301.03 235.64 300.94 235.69"/><polyline class="cls-2" points="214.63 121.7 214.59 121.71 214.51 121.73"/><polyline class="cls-2" points="118.43 213.49 118.63 213.53 118.64 213.53"/><polyline class="cls-2" points="207.54 121.53 207.45 121.57 207.43 121.58 207.34 121.63"/><polyline class="cls-2" points="207.54 121.53 207.57 121.53 207.66 121.51"/><polyline class="cls-2" points="207.25 121.71 207.26 121.69 207.34 121.63"/><polyline class="cls-2" points="117.56 214.22 117.53 214.19 117.5 214.15 117.48 214.1 117.47 214.04 117.47 213.97 117.48 213.9 117.5 213.83 117.53 213.76 117.58 213.69 117.62 213.62 117.68 213.56 117.74 213.51 117.8 213.47 117.87 213.44 117.93 213.41 117.99 213.4 118.05 213.41 118.1 213.42 118.14 213.45"/><line class="cls-2" x1="300.48" y1="235.79" x2="300.48" y2="235.79"/><line class="cls-2" x1="113.66" y1="203.39" x2="113.99" y2="203.62"/><polyline class="cls-2" points="260.92 273.03 260.75 273.07 260.64 273.1 260.49 273.12"/><polyline class="cls-2" points="264.1 268.13 264.07 267.97 264.05 267.85 264.01 267.7"/><polyline class="cls-2" points="264.1 268.13 264.1 268.25 264.1 268.42"/><line class="cls-2" x1="117.99" y1="210.85" x2="117.99" y2="210.85"/><polyline class="cls-2" points="110.15 211.83 109.28 212.44 108.4 212.99 107.55 213.46"/><polyline class="cls-2" points="311.23 174.44 311.26 174.43 311.34 174.39"/><polyline class="cls-2" points="303.6 230.35 303.65 230.46 303.7 230.58"/><polyline class="cls-2" points="303.29 229.98 303.37 230.06 303.46 230.15 303.38 230.06"/><polygon class="cls-2" points="300.54 235.79 300.41 235.79 300.29 235.8 300.43 235.79 300.54 235.79"/><polyline class="cls-2" points="221.86 284.98 221.67 285.02 221.54 285.05"/><polyline class="cls-2" points="225.45 279.36 225.47 279.48 225.5 279.67"/><polyline class="cls-2" points="304.74 177.7 307.08 178.98 307.14 179.01"/><polyline class="cls-2" points="311.49 174.35 311.54 174.36 311.61 174.36"/><polyline class="cls-2" points="311.65 174.37 311.7 174.39 311.75 174.41"/><polyline class="cls-2" points="304.1 177.87 304.12 177.85 304.2 177.78"/><polyline class="cls-2" points="304.74 177.7 304.7 177.68 304.65 177.67 304.58 177.66 304.54 177.65 304.49 177.66 304.42 177.67 304.38 177.69 304.31 177.72 304.27 177.74 304.2 177.78"/><polyline class="cls-2" points="307.22 179.07 307.18 179.03 307.14 179.01"/><line class="cls-2" x1="311.23" y1="174.44" x2="311.16" y2="174.5"/><polyline class="cls-2" points="311.49 174.35 311.45 174.36 311.38 174.38 311.34 174.39"/><polyline class="cls-2" points="311.06 174.58 311.08 174.56 311.16 174.5"/><line class="cls-2" x1="311.61" y1="174.36" x2="311.65" y2="174.37"/><polyline class="cls-2" points="314.3 176.16 314.3 176.07 314.3 176.03 314.28 175.96 314.27 175.91 314.24 175.85 314.22 175.81 314.19 175.77 314.15 175.73 314.12 175.69 314.08 175.67 311.75 174.41"/><polyline class="cls-2" points="220.38 284.82 220.25 284.72 219.54 284.22"/><polyline class="cls-2" points="261.18 272.92 261.02 272.98 260.92 273.03"/><line class="cls-2" x1="220.5" y1="284.88" x2="220.38" y2="284.82"/><polyline class="cls-2" points="224.08 277.85 224.8 278.34 224.82 278.36"/><polyline class="cls-2" points="225.51 279.88 225.51 280 225.5 280.21"/><polyline class="cls-2" points="225.42 280.69 225.39 280.77 225.33 281.02 225.25 281.27"/><polyline class="cls-2" points="223.26 284.16 223.06 284.33 222.85 284.48 222.78 284.53"/><polyline class="cls-2" points="261.78 272.54 261.61 272.66 261.53 272.72"/><polyline class="cls-2" points="264.06 268.82 264.04 268.91 264 269.12"/><polyline class="cls-2" points="262.75 266.49 263.42 266.93 263.48 266.97"/><polyline class="cls-2" points="259.61 272.93 259.53 272.87 258.86 272.43"/><polyline class="cls-2" points="259.84 273.04 259.72 272.99 259.61 272.93"/><polyline class="cls-2" points="222.36 284.78 222.16 284.87 222.06 284.91"/><line class="cls-2" x1="221.7" y1="285.01" x2="221.7" y2="285.01"/><line class="cls-2" x1="259.84" y1="273.04" x2="259.61" y2="272.92"/><line class="cls-2" x1="259.84" y1="273.04" x2="259.96" y2="273.08"/><polyline class="cls-2" points="263.76 267.23 263.67 267.14 263.58 267.05 263.48 266.97"/><polyline class="cls-2" points="261.53 272.72 261.36 272.83 261.18 272.92"/><polyline class="cls-2" points="264.06 268.82 264.09 268.62 264.1 268.42"/><polyline class="cls-2" points="264 269.12 263.94 269.34 263.87 269.57 263.78 269.81 263.68 270.05 263.56 270.29 263.44 270.53 263.3 270.77 263.15 271 263 271.23 262.83 271.45 262.67 271.67 262.49 271.87 262.32 272.06 262.14 272.24 261.96 272.4 261.78 272.54"/><polyline class="cls-2" points="273.99 229.15 274.7 229.58 274.77 229.63"/><polyline class="cls-2" points="275.45 231.53 275.43 231.62 275.39 231.84 275.34 232.07"/><polyline class="cls-2" points="273.38 235.26 273.56 235.1 273.74 234.91 273.92 234.71 274.1 234.5 274.26 234.28 274.43 234.04 274.58 233.8 274.73 233.56 274.86 233.31 274.98 233.05 275.09 232.8 275.19 232.55 275.27 232.31 275.34 232.07"/><polyline class="cls-2" points="270.94 235.85 270.87 235.81 270.16 235.37"/><polyline class="cls-2" points="283.29 248.39 283.39 248.47 283.49 248.54"/><polyline class="cls-2" points="280.87 254.37 280.72 254.4 280.61 254.43"/><polyline class="cls-2" points="281.69 253.92 281.52 254.03 281.45 254.09"/><polyline class="cls-2" points="283.94 250.11 283.93 250.21 283.89 250.41"/><polyline class="cls-2" points="282.61 247.97 283.28 248.38 283.29 248.39"/><polyline class="cls-2" points="280.09 254.42 279.97 254.38 279.85 254.35"/><polyline class="cls-2" points="281.45 254.09 281.28 254.19 281.12 254.27 281.02 254.31 280.87 254.37"/><polyline class="cls-2" points="283.94 250.11 283.96 249.92 283.96 249.74 283.96 249.63 283.94 249.46"/><polyline class="cls-2" points="282.85 252.68 282.69 252.9 282.52 253.1 282.36 253.29 282.19 253.47 282.02 253.64 281.85 253.79 281.69 253.92"/><polyline class="cls-2" points="283.27 252 283.26 252.01 283.13 252.23 283 252.45 282.85 252.66 282.85 252.68"/><polyline class="cls-2" points="283.27 252 283.4 251.76 283.51 251.53 283.62 251.29 283.7 251.06 283.78 250.83 283.84 250.62 283.89 250.41"/><line class="cls-2" x1="119.35" y1="221.45" x2="121.26" y2="222.79"/><polyline class="cls-2" points="303.79 231.44 303.77 231.53 303.75 231.72"/><line class="cls-2" x1="122.22" y1="223.27" x2="121.75" y2="223.07"/><line class="cls-2" x1="121.75" y1="223.07" x2="121.33" y2="222.84"/><polyline class="cls-2" points="122.22 223.27 122.27 223.29 122.38 223.32"/><line class="cls-2" x1="121.26" y1="222.79" x2="121.33" y2="222.84"/><polyline class="cls-2" points="241.74 288.25 241.78 288.37 241.84 288.51"/><polyline class="cls-2" points="225.45 279.36 225.4 279.19 225.36 279.06 225.29 278.91 225.22 278.79 225.13 278.66 225.04 278.56 224.92 278.45 224.82 278.36"/><path class="cls-2" d="M176.36,225.76a6,6,0,0,0,5.62-.27,10.54,10.54,0,0,0,4.19-4,10.36,10.36,0,0,0,1.72-5.53,5.69,5.69,0,0,0-2.39-5.07"/><path class="cls-2" d="M185.5,210.89a5.78,5.78,0,0,0-5.59.06,10.41,10.41,0,0,0-4.26,3.9"/><line class="cls-2" x1="113.14" y1="223.3" x2="112.34" y2="223.27"/><polyline class="cls-2" points="114.01 223.25 114.86 223.13 115.73 222.94"/><line class="cls-2" x1="111.52" y1="223.15" x2="110.79" y2="222.97"/><polyline class="cls-2" points="114.01 223.25 113.18 223.29 113.14 223.3"/><polyline class="cls-2" points="112.3 223.26 111.57 223.16 111.52 223.15"/><polyline class="cls-2" points="241.91 288.97 241.91 289.09 241.91 289.28"/><polyline class="cls-2" points="241.85 289.7 241.83 289.79 241.78 290.01"/><polyline class="cls-2" points="238.46 293.93 238.29 293.97 238.17 293.99"/><polyline class="cls-2" points="239.55 293.33 239.37 293.47 239.29 293.52"/><polyline class="cls-2" points="240.6 287.23 241.21 287.65 241.29 287.7"/><line class="cls-2" x1="241.29" y1="287.7" x2="241.42" y2="287.81"/><polyline class="cls-2" points="241.6 288.01 241.67 288.12 241.74 288.25"/><polyline class="cls-2" points="237.35 293.89 237.23 293.82 237.12 293.76"/><polyline class="cls-2" points="241.85 289.7 241.89 289.48 241.91 289.28"/><line class="cls-2" x1="238.64" y1="293.87" x2="238.46" y2="293.93"/><polyline class="cls-2" points="239.29 293.52 239.1 293.65 238.92 293.75"/><polyline class="cls-2" points="241.78 290.01 241.71 290.24 241.62 290.48 241.52 290.72 241.41 290.97 241.28 291.21 241.14 291.46 240.99 291.7 240.83 291.94 240.66 292.18 240.49 292.4 240.31 292.61 240.12 292.82 239.93 293 239.74 293.18 239.55 293.33"/><line class="cls-2" x1="225.51" y1="279.88" x2="225.5" y2="279.67"/><line class="cls-2" x1="109.04" y1="208.9" x2="109.08" y2="208.93"/><polyline class="cls-2" points="225.42 280.69 225.47 280.44 225.5 280.21"/><polyline class="cls-2" points="223.26 284.16 223.47 283.97 223.67 283.77 223.87 283.55 224.07 283.32 224.25 283.08 224.43 282.83 224.6 282.58 224.76 282.32 224.9 282.05 225.03 281.79 225.15 281.53 225.25 281.27"/><polyline class="cls-2" points="222.36 284.78 222.57 284.67 222.78 284.53"/><path class="cls-2" d="M135.28,198.29a5.5,5.5,0,0,0,5.29-.33,10.57,10.57,0,0,0,4-3.79,10.22,10.22,0,0,0,1.75-5.19,5.22,5.22,0,0,0-2.09-4.84"/><path class="cls-2" d="M144.18,184.14a5.38,5.38,0,0,0-5.27.18,10.23,10.23,0,0,0-4,3.72"/><path class="cls-2" d="M134.91,188a10.15,10.15,0,0,0-1.85,5.32,5.13,5.13,0,0,0,2.22,4.93"/><line class="cls-2" x1="112.34" y1="223.27" x2="112.3" y2="223.26"/><polyline class="cls-2" points="116.65 222.67 115.77 222.93 115.73 222.94"/><line class="cls-2" x1="114.31" y1="210.4" x2="114.31" y2="210.4"/><line class="cls-2" x1="114.31" y1="210.4" x2="114.31" y2="210.4"/><path class="cls-2" d="M175.65,214.85a10.3,10.3,0,0,0-1.85,5.71,5.63,5.63,0,0,0,2.56,5.2"/><line class="cls-2" x1="113.66" y1="203.39" x2="113.47" y2="203.26"/><line class="cls-2" x1="221.86" y1="284.98" x2="222.06" y2="284.91"/><polyline class="cls-2" points="221.54 285.05 221.36 285.06 221.23 285.06 221.06 285.06 220.93 285.03 220.77 285 220.64 284.95 220.5 284.88"/></g><g id="where::Visible::Curves::tires"><polyline class="cls-2" points="143.92 161.92 143.56 160.01 144.42 159.43"/><polyline class="cls-2" points="152.88 155.87 152.55 153.96 153.39 153.39"/><polyline class="cls-2" points="161.65 149.94 161.36 148.03 162.18 147.48"/><polyline class="cls-2" points="170.24 144.13 169.98 142.23 170.78 141.69"/><polyline class="cls-2" points="134.76 168.11 134.38 166.19 135.26 165.6"/><polyline class="cls-2" points="125.42 174.43 125 172.51 125.9 171.91"/><polyline class="cls-2" points="115.86 180.88 115.42 178.97 116.33 178.35"/><polyline class="cls-2" points="170.56 137.04 171.38 136.49 177.09 132.68"/><polyline class="cls-2" points="178.66 138.44 178.42 136.54 179.21 136.01"/><polyline class="cls-2" points="186.91 132.87 186.7 130.97 187.47 130.45"/><polyline class="cls-2" points="195 127.4 194.81 125.51 195.56 125"/><line class="cls-2" x1="210.75" y1="120.1" x2="211.93" y2="117.82"/><polyline class="cls-2" points="162.03 142.73 162.91 142.14 168.72 138.26"/><polyline class="cls-2" points="215.19 119.56 213.54 118.67 210.64 117.09 209.56 116.53"/><polyline class="cls-2" points="144.42 154.49 145.45 153.8 151.45 149.8"/><polyline class="cls-2" points="106.89 179.54 108.26 178.63 114.65 174.36"/><line class="cls-2" x1="97.79" y1="218.65" x2="97.04" y2="218.1"/><line class="cls-2" x1="208.5" y1="118.59" x2="209.56" y2="116.53"/><line class="cls-2" x1="312.88" y1="174.89" x2="314.09" y2="172.64"/><line class="cls-2" x1="309.48" y1="173.38" x2="310.81" y2="170.9"/><polyline class="cls-2" points="286.95 189.5 287.02 187.58 287.77 186.94"/><polyline class="cls-2" points="278.97 196.29 279.01 194.37 279.78 193.72"/><polyline class="cls-2" points="270.8 203.23 270.82 201.31 271.6 200.65"/><polyline class="cls-2" points="262.45 210.34 262.44 208.41 263.24 207.74"/><polyline class="cls-2" points="253.9 217.6 253.87 215.69 254.69 214.99"/><polyline class="cls-2" points="245.15 225.04 245.09 223.13 245.93 222.41"/><polyline class="cls-2" points="236.2 232.66 236.1 230.74 236.96 230.02"/><polyline class="cls-2" points="227.03 240.46 226.9 238.55 227.78 237.8"/><polyline class="cls-2" points="217.63 248.45 217.47 246.54 218.38 245.78"/><polyline class="cls-2" points="208 256.63 207.81 254.73 208.74 253.95"/><polyline class="cls-2" points="278.14 187.55 278.59 187.18 284.43 182.29"/><polyline class="cls-2" points="261.74 201.28 262.31 200.8 268.33 195.76"/><polyline class="cls-2" points="244.57 215.66 245.28 215.06 251.5 209.86"/><line class="cls-2" x1="235.69" y1="223.1" x2="242.78" y2="217.15"/><polyline class="cls-2" points="226.59 230.71 227.45 230 233.87 224.62"/><polyline class="cls-2" points="207.73 246.51 208.75 245.66 215.38 240.1"/><line class="cls-2" x1="198.44" y1="291.14" x2="196.69" y2="289.87"/><line class="cls-2" x1="321.94" y1="179.79" x2="321.94" y2="179.78"/><line class="cls-2" x1="321.94" y1="179.79" x2="321.04" y2="179.29"/><polyline class="cls-2" points="200.8 285.06 198.65 285.9 196.56 284.41 197.61 281.04 199.56 280.3"/><polyline class="cls-2" points="199 284.78 205.9 285.55 207.87 284.76"/><polyline class="cls-2" points="270.03 194.34 270.54 193.91 276.47 188.95"/><polyline class="cls-2" points="293.83 174.41 295.39 173.11 297.43 171.59 299.39 170.53 299.99 170.33"/><polyline class="cls-2" points="203.04 265.24 202.03 264.2 199.94 262.75"/><polyline class="cls-2" points="217.27 238.51 218.21 237.73 224.74 232.27"/><polyline class="cls-2" points="253.26 208.39 253.89 207.85 260.01 202.73"/><polyline class="cls-2" points="286.07 180.91 286.46 180.58 292.21 175.77"/><polyline class="cls-2" points="190.55 138.99 186.87 138.43 185.18 137.46 182.82 139.07 183.05 140.97"/><line class="cls-2" x1="215.41" y1="121.82" x2="216.27" y2="120.15"/><polyline class="cls-2" points="182.23 144.73 178.48 144.16 176.79 143.17 174.38 144.81 174.63 146.71"/><polyline class="cls-2" points="173.71 150.59 169.92 150 168.23 148.99 165.76 150.67 166.05 152.57"/><polyline class="cls-2" points="165.01 156.57 161.18 155.97 159.48 154.94 156.97 156.65 157.28 158.56"/><polyline class="cls-2" points="196.93 255.87 197.28 255.48 199.81 253.14 200.49 252.57 205.8 248.12"/><polyline class="cls-2" points="205.96 249.68 205.77 247.77 207.6 246.24 210.58 252.39 212.67 253.8 212.84 255.7"/><polyline class="cls-2" points="226.94 260.98 226.81 259.08 218.19 257.51 216.08 256.09 213.32 258.45 213.49 260.36"/><polyline class="cls-2" points="215.51 241.66 215.35 239.75 217.14 238.25 220.17 244.25 222.26 245.63 222.4 247.54"/><polyline class="cls-2" points="236.39 252.69 236.3 250.78 227.77 249.25 225.66 247.86 222.96 250.17 223.1 252.08"/><polyline class="cls-2" points="224.84 233.83 224.71 231.91 226.45 230.46 229.53 236.32 231.62 237.66 231.72 239.57"/><polyline class="cls-2" points="245.62 244.6 245.56 242.69 237.11 241.19 235 239.84 232.38 242.09 232.48 244"/><polyline class="cls-2" points="233.95 226.19 233.85 224.27 235.55 222.84 238.67 228.57 240.75 229.88 240.83 231.79"/><polyline class="cls-2" points="254.63 236.7 254.59 234.79 246.22 233.33 244.13 232.01 241.56 234.21 241.64 236.12"/><polyline class="cls-2" points="242.84 218.72 242.77 216.8 244.43 215.41 247.6 221 249.67 222.28 249.72 224.2"/><polyline class="cls-2" points="263.42 228.99 263.42 227.07 255.13 225.65 253.03 224.36 250.53 226.51 250.58 228.43"/><polyline class="cls-2" points="251.53 211.43 251.49 209.5 253.11 208.15 256.32 213.61 258.38 214.86 258.4 216.78"/><polyline class="cls-2" points="272.01 221.46 272.03 219.54 263.82 218.15 261.74 216.89 259.29 218.99 259.31 220.91"/><polyline class="cls-2" points="260.02 204.3 260.01 202.38 261.6 201.05 264.84 206.38 266.89 207.61 266.89 209.53"/><polyline class="cls-2" points="280.4 214.1 280.45 212.18 272.31 210.83 270.24 209.59 267.85 211.64 267.83 213.56"/><polyline class="cls-2" points="268.32 197.33 268.33 195.41 269.89 194.11 273.16 199.33 275.21 200.52 275.18 202.44"/><polyline class="cls-2" points="288.59 206.91 288.67 204.99 280.61 203.67 278.54 202.46 276.21 204.47 276.17 206.39"/><polyline class="cls-2" points="276.44 190.51 276.48 188.59 278 187.32 281.3 192.43 283.34 193.59 283.29 195.51"/><polyline class="cls-2" points="296.61 199.89 296.71 197.97 288.72 196.67 286.66 195.49 284.38 197.45 284.32 199.37"/><polyline class="cls-2" points="284.38 183.85 284.44 181.93 285.92 180.69 289.26 185.68 291.29 186.82 291.21 188.74"/><polyline class="cls-2" points="304.44 193.02 304.56 191.1 296.65 189.83 294.6 188.68 292.37 190.59 292.28 192.51"/><polyline class="cls-2" points="294.76 182.85 294.85 180.94 295.58 180.32"/><polyline class="cls-2" points="292.14 177.33 292.23 175.41 293.68 174.2 297.04 179.08 299.07 180.2 298.96 182.12"/><polyline class="cls-2" points="312.1 186.3 312.25 184.38 304.41 183.14 302.36 182.01 300.18 183.89 300.07 185.81"/><polyline class="cls-2" points="299.78 171.44 300.2 169.27 301.57 168.45 305.03 172.67 307.04 173.76 306.61 175.9"/><polyline class="cls-2" points="319.5 180.82 320.03 178.4 312.36 176.63 310.32 175.53 308.26 176.81 307.78 179.18"/><polyline class="cls-2" points="204.08 270.94 202.96 269.8 205.44 266.55 207.56 268.01 215.94 268.8 217.04 269.99"/><polyline class="cls-2" points="198.6 267.13 197.46 265.98 198.29 264.9 195.03 257.73 196.67 255.6 197.84 256.82"/><line class="cls-2" x1="314.72" y1="176.21" x2="316.06" y2="173.72"/><line class="cls-2" x1="312.73" y1="174.81" x2="314.85" y2="175.96"/><polyline class="cls-2" points="119.36 188.61 114.55 187.8 112.84 186.66 110.04 188.56 110.51 190.47"/><polyline class="cls-2" points="128 181.77 124.28 181.16 122.58 180.03 119.84 181.9 120.28 183.82"/><polyline class="cls-2" points="195.36 281.18 193.2 282 191.13 280.52 191.47 279.41 186.82 272.02 187.5 269.77 189.75 268.99"/><polyline class="cls-2" points="199.66 295.39 204.57 297.64 206.59 295.45"/><polyline class="cls-2" points="215.67 277.07 217.49 274.61 219.45 272.37 221.49 270.39 315.86 187.08 317.52 185.77 319.1 184.83"/><polyline class="cls-2" points="196.75 289.81 194.58 292.13 192.55 290.66 192.26 290.03 185.81 284.09 185.22 282.81 187.48 280.42"/><polyline class="cls-2" points="186.75 281.2 186.32 279.11 186.33 276.57 186.78 273.73 187.13 272.51"/><polyline class="cls-2" points="321.04 179.29 324.65 181.24 325.71 182.06 326.47 183.31 326.92 184.99 327.06 187.01 326.88 189.35 326.39 191.93 325.61 194.68 324.56 197.55 323.26 200.45 322.24 202.55 317.2 212.94 312.11 223.44 307.63 232.66 306.46 234.88 305.13 237.03 303.69 239.06 302.17 240.9 300.62 242.5 299.47 243.59 292.56 250.12 285.08 257.18 277.44 264.39 269 272.36 260.35 280.52 252.18 288.25 239.47 300.24 237.81 301.68 236.18 302.86 234.61 303.75 233.13 304.33 231.78 304.58 230.6 304.5 228.86 304.08 222.5 302.58 216.42 301.14 211.2 299.9 209.69 299.24 205.73 296.38"/><polyline class="cls-2" points="113.77 229.61 112.83 228.64 111.2 227.47 111.25 227.4"/><polyline class="cls-2" points="106.1 187.49 105.62 185.56 106.55 184.94"/><polyline class="cls-2" points="105.21 181.88 104.73 179.96 106.58 178.72 108.42 183.68 110.1 184.81 110.57 186.73"/><polyline class="cls-2" points="114.89 175.4 114.45 173.48 116.26 172.27 118.15 177.12 119.84 178.23 120.27 180.15"/><polyline class="cls-2" points="124.37 169.06 123.96 167.14 125.73 165.96 127.68 170.71 129.37 171.79 129.77 173.71"/><polyline class="cls-2" points="133.65 162.85 133.27 160.94 135 159.78 137.01 164.43 138.69 165.49 139.06 167.41"/><polyline class="cls-2" points="142.73 156.78 142.38 154.87 144.08 153.73 146.13 158.28 147.82 159.32 148.15 161.24"/><polyline class="cls-2" points="151.62 150.83 151.3 148.92 152.96 147.81 155.07 152.27 156.75 153.28 157.06 155.19"/><polyline class="cls-2" points="160.33 145 160.04 143.1 161.67 142.01 163.82 146.38 165.5 147.37 165.78 149.28"/><polyline class="cls-2" points="168.86 139.29 168.6 137.39 170.19 136.33 172.39 140.6 174.06 141.58 174.32 143.49"/><polyline class="cls-2" points="177.22 133.7 176.98 131.81 178.55 130.76 180.78 134.95 182.46 135.91 182.69 137.81"/><polyline class="cls-2" points="110.79 222.97 108.92 221.8 108.02 220.31 107.44 218.51 107.23 216.47 107.38 214.23 107.9 211.87 108.76 209.45 109.96 207.06 111.44 204.75 113.16 202.62 115.08 200.71 115.47 200.41"/><polyline class="cls-2" points="185.42 128.22 185.2 126.33 186.74 125.31 189.01 129.41 190.68 130.35 190.89 132.25"/><polyline class="cls-2" points="198.63 133.35 195.09 132.82 193.4 131.87 191.09 133.45 191.29 135.34"/><line class="cls-2" x1="135.34" y1="160.55" x2="142.54" y2="155.74"/><polyline class="cls-2" points="116.58 173.07 117.86 172.22 124.15 168.02"/><polyline class="cls-2" points="96.28 186.98 96.68 186.6 99.21 184.66 99.9 184.21 104.95 180.84"/><polyline class="cls-2" points="88.43 198.68 88.95 197.18 90.39 194.26 92.2 191.47 94.29 188.92"/><polyline class="cls-2" points="193.45 122.85 193.26 120.96 194.76 119.96 197.07 123.98 198.74 124.9 198.92 126.79"/><polyline class="cls-2" points="206.38 127.8 203.14 127.32 201.45 126.39 199.19 127.94 199.37 129.83"/><polyline class="cls-2" points="203.02 121.99 203.2 119.71 203.94 119.39"/><polyline class="cls-2" points="201.44 118.07 201.6 115.97 203.07 115.35 205.42 118.75 207.08 119.66 206.91 121.72"/><polyline class="cls-2" points="88.09 209.89 87.54 208.3 87.21 205.78 87.34 203.03 87.48 202.31"/><polyline class="cls-2" points="103.72 222.91 103.25 223.69 102.62 223.46"/><line class="cls-2" x1="206.89" y1="117.72" x2="208.5" y2="118.59"/><polyline class="cls-2" points="100.8 194.63 99.52 193.43 97.83 192.27"/><polyline class="cls-2" points="214.03 122.6 211.47 122.03 209.79 121.12 207.57 122.09 207.38 124.37"/><polyline class="cls-2" points="101.33 199.46 99.89 198.14 102.25 195.32 103.95 196.49 111.03 196.91 112.47 198.28"/><polyline class="cls-2" points="211.29 299.92 210.07 301.93 208.86 301.65 205.04 298 204.51 297.61"/><line class="cls-2" x1="217.51" y1="120.8" x2="216.27" y2="120.15"/><polyline class="cls-2" points="217.53 301.4 216.34 303.37 215.17 303.1 211.97 300.08"/><line class="cls-2" x1="197.25" y1="292.43" x2="195.36" y2="291.29"/><polyline class="cls-2" points="314.96 175.77 314.79 175.68 314.64 175.84"/><polyline class="cls-2" points="96.92 196.39 95.48 195.07 96.27 194.13 94 188.16 95.56 186.31 97.04 187.7"/><line class="cls-2" x1="213.94" y1="121.52" x2="214.96" y2="122.07"/><polyline class="cls-2" points="96.62 211.75 102.02 211.88 104.16 211.45"/><polyline class="cls-2" points="153.31 148.55 154.27 147.91 160.17 143.97"/><polyline class="cls-2" points="98.7 212.33 96.38 212.81 94.7 211.61 95.42 208.43 97.52 208.02"/><polyline class="cls-2" points="94.33 209.22 92 209.68 90.34 208.49 90.57 207.43 86.7 201.02 87.17 198.91 89.58 198.48"/><polyline class="cls-2" points="98.88 222.46 102.29 223.76 104.27 221.92"/><line class="cls-2" x1="116.88" y1="199.29" x2="116.88" y2="199.29"/><polyline class="cls-2" points="97.1 218.05 94.96 220.01 93.32 218.82 92.92 218.14 87.17 212.85 86.34 211.47 88.56 209.46"/><polyline class="cls-2" points="195.15 120.62 197.04 119.36 199.18 118.14 201.3 117.35 201.5 117.32"/><polyline class="cls-2" points="114.99 228.72 109.72 226.86 107.88 225.91 103.43 222.71"/><polyline class="cls-2" points="138.74 234.55 137.41 235.03 135.78 235.35 134.25 235.35 132.86 235.05 130.77 234.31 125.25 232.35"/><polyline class="cls-2" points="156.09 162.68 152.25 162.06 150.55 161.01 147.98 162.76 148.32 164.67"/><polyline class="cls-2" points="146.86 168.89 143.13 168.29 141.43 167.22 138.81 169 139.18 170.92"/><polyline class="cls-2" points="137.3 175.22 133.81 174.65 132.11 173.56 129.43 175.38 129.83 177.3"/><path class="cls-2" d="M214.39,152.57c.46.23.37.87.3,1.24"/><path class="cls-2" d="M214.36,153.6a2.07,2.07,0,0,0,0-.35.42.42,0,0,0-.11-.32"/><path class="cls-2" d="M214.17,155.27a2.55,2.55,0,0,1-.13.29"/><path class="cls-2" d="M214.21,152.51a.64.64,0,0,1,.18.06"/><path class="cls-2" d="M214.23,152.89l-.11,0"/><polyline class="cls-2" points="212.1 295.85 211.16 294.87 210.55 293.5 210.28 291.76 210.36 289.7 210.36 289.7"/><polyline class="cls-2" points="210.79 287.39 210.79 287.39 211.56 284.89 211.56 284.89"/><polyline class="cls-2" points="139.64 235.18 139.63 235.19 139.62 235.17"/><polyline class="cls-2" points="320.55 184.29 321.85 184.15 322.95 184.41"/><polyline class="cls-2" points="302.5 176.29 302.96 173.93 303.65 173.51"/></g><g id="where::Visible::Curves::white_detail" data-name="where::Visible::Curves::white detail"><line class="cls-2" x1="113.48" y1="194.34" x2="113.44" y2="194.26"/><line class="cls-2" x1="114.38" y1="197.58" x2="114.3" y2="197.51"/><line class="cls-2" x1="113.44" y1="194.26" x2="113.42" y2="194.16"/><line class="cls-2" x1="113.42" y1="194.06" x2="113.44" y2="193.96"/><line class="cls-2" x1="113.42" y1="194.16" x2="113.42" y2="194.06"/><line class="cls-2" x1="113.44" y1="193.96" x2="113.49" y2="193.87"/><line class="cls-2" x1="301.24" y1="164.74" x2="301.23" y2="164.83"/><line class="cls-2" x1="113.49" y1="193.87" x2="113.55" y2="193.77"/><line class="cls-2" x1="301.23" y1="164.83" x2="301.2" y2="164.91"/><line class="cls-2" x1="301.24" y1="164.67" x2="301.24" y2="164.74"/><line class="cls-2" x1="195.02" y1="249.69" x2="194.87" y2="249.68"/><line class="cls-2" x1="195.4" y1="252.75" x2="195.25" y2="252.74"/><line class="cls-2" x1="195.63" y1="249.58" x2="195.49" y2="249.63"/><line class="cls-2" x1="196.01" y1="252.64" x2="195.86" y2="252.7"/><line class="cls-2" x1="194.87" y1="249.68" x2="194.73" y2="249.64"/><line class="cls-2" x1="194.73" y1="249.64" x2="194.59" y2="249.59"/><line class="cls-2" x1="301.14" y1="164.99" x2="301.07" y2="165.06"/><line class="cls-2" x1="195.18" y1="249.69" x2="195.56" y2="252.75"/><polyline class="cls-2" points="194.47 249.52 182.02 241.04 162.01 227.42 142.81 214.36 114.02 194.76 113.63 194.49"/><line class="cls-2" x1="195.11" y1="252.7" x2="194.97" y2="252.65"/><line class="cls-2" x1="195.34" y1="249.67" x2="195.18" y2="249.69"/><line class="cls-2" x1="195.71" y1="252.73" x2="195.56" y2="252.75"/><line class="cls-2" x1="194.59" y1="249.59" x2="194.47" y2="249.52"/><line class="cls-2" x1="194.97" y1="252.65" x2="194.85" y2="252.58"/><line class="cls-2" x1="114.3" y1="197.51" x2="114.23" y2="197.43"/><line class="cls-2" x1="113.55" y1="193.77" x2="113.64" y2="193.68"/><line class="cls-2" x1="113.64" y1="193.68" x2="113.74" y2="193.6"/><line class="cls-2" x1="301.2" y1="164.91" x2="301.14" y2="164.99"/><polyline class="cls-2" points="194.85 252.58 182.46 244.11 162.55 230.5 143.44 217.44 114.77 197.84 114.38 197.58"/><line class="cls-2" x1="195.76" y1="249.51" x2="195.63" y2="249.58"/><polyline class="cls-2" points="301.24 161.99 300.89 162.28 264.69 192.32 239.38 213.32 212.26 235.83 195.88 249.42"/><line class="cls-2" x1="196.14" y1="252.57" x2="196.01" y2="252.64"/><line class="cls-2" x1="196.25" y1="252.49" x2="196.14" y2="252.57"/><line class="cls-2" x1="113.63" y1="194.49" x2="113.55" y2="194.42"/><line class="cls-2" x1="113.44" y1="194.26" x2="114.19" y2="197.34"/><line class="cls-2" x1="195.88" y1="249.42" x2="195.76" y2="249.51"/><line class="cls-2" x1="301.4" y1="161.75" x2="301.37" y2="161.84"/><line class="cls-2" x1="301.31" y1="161.92" x2="301.24" y2="161.99"/><line class="cls-2" x1="301.37" y1="161.84" x2="301.31" y2="161.92"/><line class="cls-2" x1="195.25" y1="252.74" x2="195.11" y2="252.7"/><line class="cls-2" x1="195.18" y1="249.69" x2="195.02" y2="249.69"/><line class="cls-2" x1="195.49" y1="249.63" x2="195.34" y2="249.67"/><line class="cls-2" x1="195.86" y1="252.7" x2="195.71" y2="252.73"/><line class="cls-2" x1="113.55" y1="194.42" x2="113.48" y2="194.34"/><line class="cls-2" x1="114.23" y1="197.43" x2="114.19" y2="197.34"/><line class="cls-2" x1="195.56" y1="252.75" x2="195.4" y2="252.75"/></g><g id="where::Visible::Curves::Layer_01" data-name="where::Visible::Curves::Layer 01"><path class="cls-2" d="M160.42,216c.43-.33.12-1.13,0-1.47"/><path class="cls-2" d="M157.05,217.41h0"/><line class="cls-2" x1="147.42" y1="209.46" x2="155.89" y2="215.15"/><line class="cls-2" x1="156.27" y1="217.29" x2="147.83" y2="211.6"/><path class="cls-2" d="M146.78,210.37a2.06,2.06,0,0,1-.2-.54"/><path class="cls-2" d="M146.69,209.3c.21-.16.57,0,.73.16"/><path class="cls-2" d="M157.15,216.94c.12.67-.39.68-.88.35"/><path class="cls-2" d="M147.38,209.27c-.9-.61-1.23,0-.82.92a3.51,3.51,0,0,0,1.31,1.59"/><line class="cls-2" x1="147.87" y1="211.78" x2="156.31" y2="217.47"/><line class="cls-2" x1="147.38" y1="209.27" x2="155.85" y2="214.96"/><path class="cls-2" d="M160.72,214.23a1.61,1.61,0,0,1-.16,1.56"/><path class="cls-2" d="M157.14,217.72c.28-.11.26-.46.22-.68a2.61,2.61,0,0,0-.27-.72,4,4,0,0,0-1-1.19"/><path class="cls-2" d="M155.85,215a3.51,3.51,0,0,1,1.33,1.62c.41.95,0,1.51-.87.89"/><path class="cls-2" d="M156.33,217.48c.25.17.45.37.81.24"/><path class="cls-2" d="M158.35,216c.13.32.39,1-.07,1.23"/><path class="cls-2" d="M146.75,209.27l0,0"/><path class="cls-2" d="M146.46,209.13c-.23.31,0,.94.18,1.2"/><path class="cls-2" d="M147.87,211.79h0"/><path class="cls-2" d="M146.63,210.35c-.13-.27-.4-.89-.17-1.22"/><path class="cls-2" d="M147.87,211.79a3.64,3.64,0,0,1-.88-.87"/><path class="cls-2" d="M147.89,211.79h0"/><path class="cls-2" d="M160.5,215.87c.35-.34.07-1.1-.08-1.42"/><path class="cls-2" d="M146.58,209.83c0-.2-.1-.37.11-.53"/><line class="cls-2" x1="156.31" y1="217.48" x2="147.87" y2="211.79"/><path class="cls-2" d="M146.46,209.13l.25-.33"/><line class="cls-2" x1="156.3" y1="217.27" x2="156.27" y2="217.29"/><path class="cls-2" d="M147.15,209.1a.6.6,0,0,0-.58-.07"/><path class="cls-2" d="M155.86,215a0,0,0,0,0,0,0"/><path class="cls-2" d="M147.38,209.26v0"/><path class="cls-2" d="M157,216.38a2.2,2.2,0,0,1,.2.56"/><path class="cls-2" d="M156.31,217.48h0"/><path class="cls-2" d="M155.89,215.15a3.08,3.08,0,0,1,1.06,1.23"/><line class="cls-2" x1="147.89" y1="211.79" x2="156.33" y2="217.48"/><line class="cls-2" x1="160.38" y1="214.47" x2="160.38" y2="214.47"/><path class="cls-2" d="M160.42,216a12.46,12.46,0,0,1-2.13,1.29"/><path class="cls-2" d="M156.31,217.47h0"/><path class="cls-2" d="M157.14,217.72c-.36.13-.56-.06-.83-.24"/><path class="cls-2" d="M147.38,209.26h0"/><line class="cls-2" x1="147.83" y1="211.6" x2="147.85" y2="211.58"/><line class="cls-2" x1="147.42" y1="209.46" x2="147.42" y2="209.45"/><path class="cls-2" d="M147.83,211.6a3.05,3.05,0,0,1-1.05-1.23"/><path class="cls-2" d="M158.28,217.24c-.36.17-.73.32-1.1.46"/><path class="cls-2" d="M158.45,216.28h0"/><path class="cls-2" d="M146.46,209.13a.26.26,0,0,1,.11-.1"/><path class="cls-2" d="M156.33,217.48h0"/></g><g id="where::Visible::Curves::exterior_pockets" data-name="where::Visible::Curves::exterior pockets"><path class="cls-2" d="M234.68,132.3l.31.14"/><path class="cls-2" d="M229.2,134.79a32.44,32.44,0,0,1,10.62-3.66"/><path class="cls-2" d="M162.87,158c7.7-5.28,30.28-20.79,37.89-26.2,3.13-2.22,6.21-4.52,9.37-6.7,2.8-1.94,6.64-4.5,10.16-5.23,4.11-.85,7.62,1.11,10.84,3,1.2.68,8.77,5.06,9.9,5.88"/></g><g id="where::Visible::Curves::body"><line class="cls-2" x1="197.46" y1="265.98" x2="197.46" y2="265.98"/><polyline class="cls-2" points="114.86 197.9 120.41 220.83 120.46 220.99 120.53 221.16 120.61 221.33 120.72 221.51 120.84 221.69 120.97 221.86 121.11 222.03 121.26 222.18 121.41 222.31 121.55 222.42 132.66 230.26 158.06 248.18 183.47 266.11 184.91 267.12 188.17 269.42"/><line class="cls-2" x1="195.24" y1="252.73" x2="195.74" y2="256.81"/></g><g id="where::Visible::Curves::metal"><path class="cls-2" d="M201.61,150.54a3.83,3.83,0,0,0,2.34,3.11,9.31,9.31,0,0,0,7.9,0,3.8,3.8,0,0,0,2.38-3.08"/><path class="cls-2" d="M211.87,155.27a3.82,3.82,0,0,0,2.34-3.06"/><line class="cls-2" x1="201.62" y1="152.14" x2="201.61" y2="150.54"/><path class="cls-2" d="M201.63,158.33c0,2.44,2.91,3.61,4.8,3.9a8.46,8.46,0,0,0,6.35-1.4"/><path class="cls-2" d="M201.63,156.34c0,2.44,2.92,3.6,4.81,3.89a8.51,8.51,0,0,0,6.37-1.4"/><path class="cls-2" d="M212.81,158.83a3.23,3.23,0,0,0,1.33-2.43"/><path class="cls-2" d="M214.14,156.4a2.25,2.25,0,0,0-.12-.81"/><line class="cls-2" x1="214.14" y1="156.4" x2="214.11" y2="158.4"/><line class="cls-2" x1="201.63" y1="158.33" x2="201.63" y2="156.34"/><path class="cls-2" d="M212.78,160.83a3.24,3.24,0,0,0,1.33-2.43"/><line class="cls-2" x1="214.23" y1="150.61" x2="214.21" y2="152.21"/><path class="cls-2" d="M203,148a3.27,3.27,0,0,0-1.39,2.5"/><path class="cls-2" d="M239.75,132.08c-.08,1.69,1.33,2.95,2.61,3.65a11.2,11.2,0,0,0,9.16.42c1.33-.57,2.86-1.7,3-3.37"/><line class="cls-2" x1="239.75" y1="132.08" x2="239.76" y2="131.74"/><path class="cls-2" d="M239.8,131.41c0,.11,0,.22,0,.33"/><line class="cls-2" x1="254.51" y1="132.43" x2="254.48" y2="132.78"/><path class="cls-2" d="M254.5,132.06c0,.13,0,.25,0,.37"/><path class="cls-2" d="M214.23,150.61c0-2.46-2.92-3.63-4.81-3.93A8.71,8.71,0,0,0,203,148"/></g><g id="where::Visible::Curves::gps"><path class="cls-2" d="M240.05,132.94a3.79,3.79,0,0,1-.26-1.2"/><path class="cls-2" d="M239.79,131.41c.11-2.49,2.55-4,4.6-4.52a10.29,10.29,0,0,1,6.74.57"/><path class="cls-2" d="M251.13,127.46c1.74.81,3.52,2.43,3.38,4.62"/><path class="cls-2" d="M254.5,132.06a4.52,4.52,0,0,1-.41,1.52"/><path class="cls-2" d="M254.09,133.58c-2.21,4.24-12.28,3.84-14-.64"/></g><g id="where::Visible::Curves::exterior"><path class="cls-2" d="M270.07,144.4A13.67,13.67,0,0,0,268,143"/><path class="cls-2" d="M160.56,191.93q6.56,4.26,13.15,8.47"/><path class="cls-2" d="M197.62,160.3l0,.06"/><line class="cls-2" x1="254.48" y1="132.78" x2="254.29" y2="135.76"/><path class="cls-2" d="M186.16,164.09c5.14-3.74,10.32-7.41,15.48-11.11"/><path class="cls-2" d="M215.62,165.2a5.28,5.28,0,0,0,2.11-3.78"/><line class="cls-2" x1="217.79" y1="158.52" x2="217.73" y2="161.49"/><path class="cls-2" d="M198,162.39c1.68,3.39,4.58,4.73,8.1,5.13,3.1.36,7-.23,9.53-2.32"/><path class="cls-2" d="M113.55,193.77c3.76-3.42,7.55-6.8,11.59-9.9,2.06-1.59,10.27-7.38,12.43-8.82,4.22-2.83,8.48-5.6,12.69-8.44s8.42-5.7,12.61-8.57"/><line class="cls-2" x1="197.99" y1="162.39" x2="197.96" y2="158.41"/><path class="cls-2" d="M173.71,200.4a87.94,87.94,0,0,0-7.78,11.25c-2.29,3.94-4.67,7.83-6.73,11.91"/><path class="cls-2" d="M162.87,158c3.74-2.56,8.58-1.08,12.08.32a86.33,86.33,0,0,1,11.21,5.73"/><path class="cls-2" d="M198,159.33c1.73,3.49,4.4,4.88,8.09,5.33,3.13.38,7.05-.2,9.63-2.32"/><path class="cls-2" d="M254.29,135.76,267.86,143"/><path class="cls-2" d="M150.18,208h0"/><path class="cls-2" d="M210.28,146.86c6.14-4.29,12.19-8.64,18.92-12.07"/><path class="cls-2" d="M206.55,176.29c15.59,9.62,26.33,18.7,33.51,36.47"/><path class="cls-2" d="M201.64,153.45c-1.82.93-3.7,2.64-3.68,5"/><path class="cls-2" d="M217.79,158.52c.05-2.32-1.81-4-3.6-5"/><path class="cls-2" d="M215.69,162.34a5.14,5.14,0,0,0,2.1-3.82"/></g><g id="where::Visible::Curves::_6006" data-name="where::Visible::Curves::???6006"><path class="cls-2" d="M201.62,152.14c0,2.22,2.53,3.4,4.26,3.78a9.31,9.31,0,0,0,6-.65"/><line class="cls-2" x1="201.63" y1="156.34" x2="201.62" y2="152.14"/><line class="cls-2" x1="214.21" y1="152.21" x2="214.14" y2="156.4"/></g><g id="where::Visible::SceneSilhouetteCurves::metal_frame" data-name="where::Visible::SceneSilhouetteCurves::metal frame"><polyline class="cls-2" points="110.83 231.77 110.86 231.74 122.6 223.16"/><line class="cls-2" x1="189.64" y1="287.61" x2="185.92" y2="290.85"/></g><g id="where::Visible::SceneSilhouetteCurves::tires"><polyline class="cls-2" points="187.11 125.98 187.8 125.53 193.35 121.82"/><polyline class="cls-2" points="131.95 234.72 130.93 236.67 129.53 236.42 127.2 233.63 125.6 232.49 125.61 232.48"/><polyline class="cls-2" points="314.09 172.64 312.1 171.57 307.93 169.32 307.07 168.87"/><polyline class="cls-2" points="326.13 179.09 319.33 175.46 317.32 174.38 316.06 173.72"/><line class="cls-2" x1="305.87" y1="171.11" x2="307.07" y2="168.87"/><polyline class="cls-2" points="178.92 131.46 179.67 130.96 185.3 127.19"/><polyline class="cls-2" points="229.37 304.2 228.3 306.17 227.09 306.15 224.08 302.95"/><line class="cls-2" x1="114.23" y1="219.02" x2="112.16" y2="218.24"/><polyline class="cls-2" points="204.27 117.08 205.21 117.14 206.89 117.72"/><polyline class="cls-2" points="327.03 187.45 327.48 186.98 327.47 185.49 326.92 184.98"/><polyline class="cls-2" points="124.64 232.81 123.83 234.15 123.16 233.91"/><polyline class="cls-2" points="237.77 301.72 237.77 301.76 236.15 303.29 236 302.97"/><polyline class="cls-2" points="188.12 269.56 188.96 267.48 190.62 264.27 192.61 261.14 194.85 258.18 195.1 257.89"/><polyline class="cls-2" points="200.26 295.66 199.94 296.01 197.88 294.52 197.05 292.64 199.02 290.52"/><line class="cls-2" x1="214.13" y1="121.62" x2="215.19" y2="119.56"/><polyline class="cls-2" points="302.72 169.85 302.83 169.84 304.23 170.22 307.73 172.11"/><polyline class="cls-2" points="99.68 222.77 99.28 223.14 97.63 221.94 96.41 219.91 98.35 218.13"/><polyline class="cls-2" points="110.42 227.1 109.23 229.06 107.8 228.56 105.39 226.01 103.74 224.83 104.54 223.51"/><polyline class="cls-2" points="223.53 302.82 222.36 304.75 221.24 304.5 218.04 301.52"/><polyline class="cls-2" points="301.31 241.78 301.07 242.11 301.04 242.06"/><line class="cls-2" x1="324.88" y1="181.41" x2="326.13" y2="179.09"/><line class="cls-2" x1="96.42" y1="219.9" x2="95.61" y2="219.41"/><polyline class="cls-2" points="126.06 166.75 127.25 165.95 133.44 161.82"/></g><g id="where::Visible::SceneSilhouetteCurves::metal"><line class="cls-2" x1="254.51" y1="132.43" x2="254.48" y2="132.78"/><path class="cls-2" d="M254.5,132.06c0,.13,0,.25,0,.37"/></g><g id="where::Visible::SceneSilhouetteCurves::gps"><path class="cls-2" d="M251.13,127.46c1.74.81,3.52,2.43,3.38,4.62"/></g><g id="where::Visible::SceneSilhouetteCurves::white_detail" data-name="where::Visible::SceneSilhouetteCurves::white detail"><line class="cls-2" x1="301.41" y1="161.67" x2="301.4" y2="161.75"/><line class="cls-2" x1="301.38" y1="161.49" x2="301.41" y2="161.58"/><line class="cls-2" x1="301.41" y1="161.58" x2="301.41" y2="161.67"/><line class="cls-2" x1="301.41" y1="161.67" x2="301.24" y2="164.74"/><polyline class="cls-2" points="301.07 165.06 300.73 165.35 264.7 195.4 239.51 216.41 212.54 238.9 196.25 252.49"/></g><g id="where::Visible::SceneSilhouetteCurves::exterior"><path class="cls-2" d="M268,143c-5.8-3.06-12.26-.6-17.24,1.94a119,119,0,0,0-15.23,9.71c-5,3.63-24,17.84-29,21.61"/><line class="cls-2" x1="254.48" y1="132.78" x2="254.29" y2="135.76"/></g><g id="where::Visible::SceneSilhouetteCurves::wheels"><polyline class="cls-2" points="214.41 121.77 214.43 121.77 214.51 121.73"/><polyline class="cls-2" points="214.63 121.7 214.66 121.7 214.74 121.7"/></g><g id="where::Visible::SceneSilhouetteCurves::body"><line class="cls-2" x1="300.59" y1="169.04" x2="300.79" y2="165.29"/></g></svg>